<svg t="1747546479541" class="icon" viewBox="0 0 1024 1024" version="1.1" xmlns="http://www.w3.org/2000/svg" p-id="3313" width="200" height="200"><path d="M955.160151 583.42883h-124.077887v-146.064905c-11.611774 5.931472-24.208906 11.167396-38.023245 15.417962-147.803774 45.539019-316.473962 78.403623-471.136604 86.035321-54.52317 2.704906-88.469736-27.358189-101.974943-66.366793a111.461434 111.461434 0 0 1-34.700076-1.680906v116.291623H77.727396l-29.019773 16.847698-0.386415 113.41283 399.746415 230.883019 527.263396-306.42717 0.193207-24.344151-20.48-11.78566z" fill="#B28AFD" p-id="3314"></path><path d="M69.747925 640.483019L597.011321 334.094491l-0.193208 64.763169L69.574038 705.246189z" fill="#3E5DEA" p-id="3315"></path><path d="M69.574038 705.246189L596.818113 398.85766l378.648151 218.595019-527.224755 306.388529z" fill="#B28AFD" p-id="3316"></path><path d="M448.222189 923.841208l527.224754-306.388529-0.077283 24.382793-527.224754 306.388528zM448.473358 834.714566L975.698113 528.326038l-0.077283 24.382792-527.224755 306.388528z" fill="#7E5AF2" p-id="3317"></path><path d="M48.63034 603.870189l527.224754-306.388529L975.698113 528.326038 448.473358 834.714566z" fill="#B28AFD" p-id="3318"></path><path d="M448.473358 834.714566l-0.077283 24.382792L69.767245 640.483019l-0.193207 64.76317L448.241509 923.841208l-0.077283 24.382792L48.301887 717.360302l0.328453-113.490113z" fill="#986FF9" p-id="3319"></path><path d="M955.237434 564.533132l-0.193208 64.917736-506.783396 295.027924-378.686792-218.517735 0.193207-65.497359 378.686793 218.710944z" fill="#F3F1FC" p-id="3320"></path><path d="M448.26083 859.136v65.304151l-378.686792-218.517736 0.193207-65.497358z" fill="#DEDFFB" p-id="3321"></path><path d="M156.884528 357.356679L597.204528 101.433962l282.624 163.183095-440.358641 255.903396z" fill="#EDB458" p-id="3322"></path><path d="M156.884528 357.356679L597.204528 101.433962l282.624 163.183095-440.358641 255.903396z" fill="#EDB458" p-id="3323"></path><path d="M81.14717 563.277283L571.701132 278.218868l352.313962 203.408906-490.553962 285.077735z" fill="#FFDE9B" p-id="3324"></path><path d="M944.031396 375.537509l-0.386415 140.075472-490.553962 285.17434-371.924528-214.846793v-22.605283l352.217358 203.25434 0.193208-94.864906-352.217359-203.254339v-22.798491l490.553962-284.981132z" fill="#FFD06C" p-id="3325"></path><path d="M453.419472 660.518642l490.553962-285.077736-0.309132 140.230037-490.553962 285.077736z" fill="#FEBC1F" p-id="3326"></path><path d="M585.302943 619.616604l-101.028226 58.735094-0.135245 68.627321 101.163471-58.793057zM662.585962 574.71517v68.550038l250.203774-145.408 0.154566-68.627321z" fill="#F8F9FE" p-id="3327"></path><path d="M81.379019 445.729811l490.553962-285.077736 372.040453 214.788831-490.553962 285.077736z" fill="#FFDE9B" p-id="3328"></path><path d="M453.419472 660.518642l-0.309132 140.230037L81.069887 585.959849l0.077283-22.682566 352.294641 203.408906 0.193208-94.864906L81.282415 468.373736l0.077283-22.663245z" fill="#FFD06C" p-id="3329"></path><path d="M433.635019 671.859925l-0.154566 80.412981L112.330868 566.870943l0.154566-80.548226z" fill="#F3F1FC" p-id="3330"></path><path d="M390.588377 674.101132l-33.366943 19.378717-12.655094-13.524528-20.924378-5.854189 33.366944-19.398038z" fill="#38425D" p-id="3331"></path><path d="M125.275774 406.122264L565.634415 150.238189l316.280755 182.600453-440.377962 255.903396z" fill="#F45170" p-id="3332"></path><path d="M899.786868 268.693736l-0.193208 94.671698-440.32 256-334.055849-192.821132v-20.48l316.280755 182.581132 0.193208-54.098113-316.280755-182.581132v-20.286793l440.513207-255.806792z" fill="#E93565" p-id="3333"></path><path d="M459.447547 524.519849l440.377962-255.922717-0.27049 94.806943-440.358642 255.903397z" fill="#DF3260" p-id="3334"></path><path d="M125.488302 331.698717L565.846943 75.776l333.978566 192.821132-440.358641 255.922717z" fill="#F45170" p-id="3335"></path><path d="M202.578113 331.582792l67.487396-39.221132 256.830793 148.267472-67.487396 39.221132z" fill="#DF3260" p-id="3336"></path><path d="M459.447547 524.519849l-0.25117 94.787623-333.978566-192.821132 0.057963-20.344755 316.280754 182.581132 0.135246-54.098113-316.261434-182.581132 0.057962-20.344755z" fill="#E93565" p-id="3337"></path><path d="M441.691774 534.682566l-0.115925 54.001509-288.284981-166.40966 0.115924-54.098113z" fill="#F3F1FC" p-id="3338"></path><path d="M781.659774 254.608906c13.350642 7.728302 13.427925 20.325434 0.154566 28.053736L584.839245 397.118792c-13.273358 7.728302-35.047849 7.728302-48.417811 0l-198.366189-114.533434c-13.350642-7.708981-13.427925-20.325434-0.154566-28.034415L534.875774 140.075472c13.273358-7.708981 35.047849-7.708981 48.417811 0z"  p-id="3339"></path></svg>