<svg t="1747552181081" class="icon" viewBox="0 0 1024 1024" version="1.1" xmlns="http://www.w3.org/2000/svg" p-id="1320" width="32" height="32"><path d="M639.6 312.7c43.5 0 79 35.4 79 78.9l0.2 219.9h107.3c27.8 0 51.2 20.8 54.4 48.4l0.3 4.9c0 19.6-8.9 36.5-23.8 46.7L543.8 926.1c-18.8 12.8-43.1 12.8-61.9 0L168.5 711.6c-19.9-13.7-28.5-38.4-21.4-61.4 7.1-23.1 28.2-38.6 52.4-38.6h106.8V391.9c0-38.2 26.5-70.1 64.7-77.6l13.1-1.4 255.5-0.2zM516.1 885.6l313.3-214.5c1.6-1.1 2.5-2.8 2.5-4.7l-0.2-2.1c-0.2-1.5-2.7-3.7-5.5-3.7H669.8l-0.2-268.9c0-16.5-13.4-29.9-29.9-29.9l-260.2 0.7c-13.8 2.7-24.1 14.8-24.1 29.3l0.1 268.9h-156c-2.5 0-4.7 1.6-5.5 4-0.8 2.4 0.2 5 2.3 6.4l313.3 214.5c1.9 1.3 4.5 1.4 6.5 0z" fill="#3D3A3A" p-id="1321"></path><path d="M378.8 199.2h248.6c13.6 0 24.5 11 24.5 24.5 0 13.6-11 24.5-24.5 24.5H378.8c-13.6 0-24.5-11-24.5-24.5s11-24.5 24.5-24.5z" fill="#54A966" p-id="1322"></path></svg>